{"glyphs":{"0":{"ha":639,"x_min":69,"x_max":569,"o":"m 319 1000 q 417 981 371 1000 q 497 927 463 961 q 550 847 531 893 q 569 750 569 801 l 569 250 q 550 153 569 199 q 497 73 531 107 q 417 19 463 39 q 319 0 371 0 q 222 19 268 0 q 142 73 176 39 q 89 153 108 107 q 69 250 69 199 l 69 750 q 89 847 69 801 q 142 927 108 893 q 222 981 176 961 q 319 1000 268 1000 m 468 750 q 456 808 468 781 q 424 855 444 835 q 377 887 404 875 q 319 899 350 899 q 262 887 289 899 q 215 855 235 875 q 183 808 194 835 q 171 750 171 781 l 171 250 q 183 192 171 219 q 215 145 194 165 q 262 113 235 125 q 319 101 289 101 q 377 113 350 101 q 424 145 404 125 q 456 192 444 165 q 468 250 468 219 l 468 750 z "},"1":{"ha":390,"x_min":71,"x_max":321,"o":"m 269 1000 q 306 985 290 1000 q 321 949 321 969 l 321 928 l 321 51 q 306 15 321 31 q 269 0 290 0 q 233 15 249 0 q 218 51 218 31 l 218 825 l 158 765 q 122 750 143 750 q 86 765 101 750 q 71 801 71 781 q 86 838 71 822 l 229 982 q 247 994 238 989 q 269 1000 257 1000 z "},"2":{"ha":639,"x_min":65,"x_max":569,"o":"m 319 1000 q 417 981 371 1000 q 497 927 463 961 q 550 847 531 893 q 569 750 569 801 q 560 684 569 718 q 535 622 551 650 l 211 100 l 519 100 q 555 85 540 100 q 569 50 569 71 q 555 15 569 29 q 519 0 540 0 l 119 0 q 107 1 113 0 q 94 7 101 1 q 70 41 75 21 q 79 81 65 61 q 267 378 171 228 q 449 675 364 528 q 468 750 468 710 q 445 815 467 778 q 389 875 424 851 q 356 892 374 886 q 318 899 338 899 q 260 886 288 899 q 214 853 233 874 q 183 807 194 833 q 171 750 171 781 q 156 714 171 729 q 121 699 142 699 q 84 714 99 699 q 69 750 69 729 q 89 847 69 801 q 142 927 108 893 q 222 981 176 961 q 319 1000 268 1000 z "},"3":{"ha":740,"x_min":69,"x_max":671,"o":"m 371 499 q 334 514 349 499 q 319 550 319 529 q 334 587 319 572 q 369 601 349 601 l 372 601 q 429 614 403 601 q 475 647 456 626 q 506 693 494 667 q 518 750 518 719 q 506 808 518 781 q 475 855 494 835 q 428 887 456 875 q 371 899 401 899 q 313 887 340 899 q 266 855 286 875 q 234 808 246 835 q 222 750 222 781 q 208 714 222 729 q 171 699 193 699 q 135 714 150 699 q 121 750 121 729 q 149 865 121 810 q 239 963 181 926 q 371 1000 297 1000 q 468 981 422 1000 q 548 927 514 961 q 601 847 582 893 q 621 750 621 801 q 596 642 621 692 q 529 557 571 592 q 632 449 593 517 q 671 301 671 382 q 647 184 671 239 q 583 88 624 129 q 488 24 542 47 q 371 0 433 0 q 253 24 308 0 q 158 88 199 47 q 93 184 117 129 q 69 301 69 239 q 84 338 69 322 q 121 353 99 353 q 157 338 142 353 q 172 301 172 322 q 188 223 172 260 q 230 159 203 186 q 293 117 257 132 q 371 101 329 101 q 449 117 413 101 q 512 160 485 133 q 554 224 539 188 q 569 301 569 260 q 556 375 569 340 q 517 437 542 410 q 458 481 492 464 q 385 500 424 497 q 378 499 381 500 q 371 499 375 499 z "},"4":{"ha":640,"x_min":67,"x_max":571,"o":"m 197 353 l 471 353 l 471 551 q 485 588 471 572 q 521 603 500 603 q 556 588 542 603 q 571 551 571 572 l 571 50 q 556 15 571 29 q 521 0 542 0 q 485 15 500 0 q 471 50 471 29 l 471 250 l 122 250 q 104 253 115 250 q 76 281 85 261 q 74 319 67 300 l 322 967 q 349 995 329 986 q 389 997 369 1004 q 417 969 408 989 q 418 931 425 950 l 197 353 z "},"5":{"ha":742,"x_min":69,"x_max":672,"o":"m 371 601 q 488 578 433 601 q 584 513 543 554 q 649 418 625 472 q 672 301 672 364 q 649 184 672 239 q 584 88 625 129 q 488 24 543 47 q 371 0 433 0 q 253 24 308 0 q 158 88 199 47 q 93 184 117 129 q 69 301 69 239 q 85 338 69 322 q 121 353 100 353 q 157 338 142 353 q 172 301 172 322 q 188 224 172 260 q 230 160 203 188 q 293 117 257 133 q 371 101 329 101 q 449 117 413 101 q 512 160 485 133 q 554 224 539 188 q 569 301 569 260 q 554 379 569 343 q 512 442 539 415 q 449 485 485 469 q 371 500 413 500 q 300 486 332 500 q 249 458 271 475 q 201 424 226 440 q 172 414 190 414 q 136 429 151 414 q 121 465 121 444 l 121 949 q 136 985 121 969 q 172 1000 151 1000 l 569 1000 q 606 985 590 1000 q 621 949 621 969 q 606 913 621 928 q 569 897 590 897 l 224 897 l 224 564 q 293 592 256 582 q 371 601 331 601 z "},"6":{"ha":742,"x_min":69,"x_max":672,"o":"m 371 601 q 488 578 433 601 q 584 513 543 554 q 649 418 625 472 q 672 301 672 364 q 649 184 672 239 q 584 88 625 129 q 488 24 543 47 q 371 0 433 0 q 253 24 308 0 q 158 88 199 47 q 93 184 117 129 q 69 301 69 239 q 94 424 69 364 q 143 543 119 485 l 306 967 q 332 995 313 986 q 371 997 351 1004 q 399 969 390 989 q 401 931 408 950 l 268 583 q 371 601 314 601 m 371 500 q 293 485 329 500 q 230 442 257 469 q 188 379 203 415 q 172 301 172 343 q 188 224 172 260 q 230 160 203 188 q 293 117 257 133 q 371 101 329 101 q 449 117 413 101 q 512 160 485 133 q 554 224 539 188 q 569 301 569 260 q 554 379 569 343 q 512 442 539 415 q 449 485 485 469 q 371 500 413 500 z "},"7":{"ha":640,"x_min":69,"x_max":574,"o":"m 443 897 l 121 897 q 85 913 100 897 q 69 949 69 928 q 85 985 69 969 q 121 1000 100 1000 l 518 1000 q 536 997 525 1000 q 565 969 556 989 q 567 931 574 950 l 221 33 q 194 5 214 14 q 156 3 175 -4 q 127 31 136 11 q 125 69 118 50 l 443 897 z "},"8":{"ha":740,"x_min":69,"x_max":671,"o":"m 529 557 q 632 449 593 517 q 671 301 671 382 q 647 184 671 239 q 583 88 624 129 q 488 24 542 47 q 371 0 433 0 q 253 24 308 0 q 158 88 199 47 q 93 184 117 129 q 69 301 69 239 q 108 449 69 382 q 211 557 147 517 q 145 642 169 592 q 121 750 121 692 q 140 847 121 801 q 194 927 160 893 q 273 981 228 961 q 371 1000 318 1000 q 468 981 422 1000 q 548 927 514 961 q 601 847 582 893 q 621 750 621 801 q 596 642 621 692 q 529 557 571 592 m 368 601 l 372 601 q 429 614 403 601 q 475 647 456 626 q 506 693 494 667 q 518 750 518 719 q 506 808 518 781 q 475 855 494 835 q 428 887 456 875 q 371 899 401 899 q 313 887 340 899 q 266 855 286 875 q 234 808 246 835 q 222 750 222 781 q 233 693 222 719 q 265 647 244 667 q 311 614 285 626 q 368 601 338 601 m 371 500 q 293 485 329 500 q 230 442 257 469 q 187 379 203 415 q 171 301 171 343 q 187 224 171 260 q 230 160 203 188 q 293 117 257 133 q 371 101 329 101 q 449 117 413 101 q 512 160 485 133 q 554 224 539 188 q 569 301 569 260 q 554 379 569 343 q 512 442 539 415 q 449 485 485 469 q 371 500 413 500 z "},"9":{"ha":742,"x_min":69,"x_max":672,"o":"m 371 406 q 253 429 308 406 q 158 494 199 453 q 93 589 117 535 q 69 706 69 643 q 93 823 69 768 q 158 919 117 878 q 253 983 199 960 q 371 1007 308 1007 q 488 983 433 1007 q 584 919 543 960 q 649 823 625 878 q 672 706 672 768 q 647 583 672 643 q 599 464 622 522 l 436 40 q 410 12 429 21 q 371 10 390 3 q 342 38 351 18 q 340 76 333 57 l 474 424 q 371 406 428 406 m 371 507 q 449 522 413 507 q 512 565 485 538 q 554 628 539 592 q 569 706 569 664 q 554 783 569 747 q 512 847 539 819 q 449 890 485 874 q 371 906 413 906 q 293 890 329 906 q 230 847 257 874 q 188 783 203 819 q 172 706 172 747 q 188 628 172 664 q 230 565 203 592 q 293 522 257 538 q 371 507 329 507 z "},"\u0000":{"ha":0,"x_min":0,"x_max":0,"o":""},"\r":{"ha":694,"x_min":0,"x_max":0,"o":""}," ":{"ha":208,"x_min":0,"x_max":0,"o":""},"E":{"ha":615,"x_min":69,"x_max":549,"o":"m 319 500 q 447 466 390 500 q 536 374 504 432 q 544 334 549 353 q 524 304 539 315 l 228 133 q 270 110 247 118 q 319 101 293 101 q 451 181 399 101 q 485 203 465 201 q 521 197 506 206 q 542 169 536 188 q 538 128 549 150 q 446 34 507 68 q 319 0 385 0 q 222 19 268 0 q 142 73 176 39 q 89 153 108 107 q 69 250 69 199 q 89 347 69 301 q 142 427 108 393 q 222 481 176 461 q 319 500 268 500 m 417 361 q 319 399 375 399 q 262 387 289 399 q 215 355 235 375 q 183 308 194 335 q 171 250 171 281 q 172 236 171 243 q 174 222 172 229 l 417 361 z "},"F":{"ha":639,"x_min":69,"x_max":569,"o":"m 569 750 q 555 714 569 729 q 518 699 540 699 q 483 714 497 699 q 468 750 468 729 q 456 808 468 781 q 424 855 444 835 q 377 887 404 875 q 319 899 350 899 q 219 860 261 899 q 172 764 178 821 l 172 603 l 378 603 q 414 588 399 603 q 429 551 429 574 q 414 516 429 531 q 378 501 399 501 l 172 501 l 172 51 q 157 15 172 31 q 121 0 142 0 q 85 15 100 0 q 69 51 69 31 l 69 756 q 91 850 71 806 q 144 928 111 894 q 223 981 178 961 q 319 1000 268 1000 q 417 981 371 1000 q 497 927 463 961 q 550 847 531 893 q 569 750 569 801 z "},"O":{"ha":639,"x_min":69,"x_max":569,"o":"m 319 500 q 417 481 371 500 q 497 427 463 461 q 550 347 531 393 q 569 250 569 301 q 550 153 569 199 q 497 73 531 107 q 417 19 463 39 q 319 0 371 0 q 222 19 268 0 q 142 73 176 39 q 89 153 108 107 q 69 250 69 199 q 89 347 69 301 q 142 427 108 393 q 222 481 176 461 q 319 500 268 500 m 319 399 q 262 387 289 399 q 215 355 235 375 q 183 308 194 335 q 171 250 171 281 q 183 192 171 219 q 215 145 194 165 q 262 113 235 125 q 319 101 289 101 q 377 113 350 101 q 424 145 404 125 q 456 192 444 165 q 468 250 468 219 q 456 308 468 281 q 424 355 444 335 q 377 387 404 375 q 319 399 350 399 z "},"H":{"ha":639,"x_min":69,"x_max":569,"o":"m 319 500 q 416 481 371 500 q 495 427 461 461 q 549 348 529 393 q 569 251 569 303 l 569 51 q 554 15 569 31 q 518 0 539 0 q 482 15 497 0 q 467 51 467 31 l 467 250 q 455 308 467 281 q 424 355 443 335 q 377 387 404 375 q 319 399 350 399 q 265 388 292 399 q 218 357 239 376 q 185 313 197 338 q 172 258 172 288 l 172 51 q 157 15 172 31 q 121 0 142 0 q 85 15 100 0 q 69 51 69 31 l 69 949 q 85 985 69 969 q 121 1000 100 1000 q 157 985 142 1000 q 172 949 172 969 l 172 451 q 241 488 204 475 q 319 500 278 500 z "},"J":{"ha":639,"x_min":69,"x_max":569,"o":"m 567 -178 q 540 -264 561 -224 q 486 -334 519 -304 q 410 -381 453 -364 q 319 -397 367 -397 q 226 -379 269 -397 q 149 -330 182 -361 q 94 -256 115 -299 q 71 -165 74 -214 q 70 -150 71 -158 q 71 -135 69 -142 q 88 -103 74 -115 q 121 -92 101 -92 q 154 -103 140 -92 q 171 -133 168 -115 q 173 -157 174 -146 q 175 -182 172 -168 q 194 -228 181 -207 q 227 -264 208 -249 q 269 -287 246 -279 q 319 -296 293 -296 q 413 -262 372 -296 q 464 -176 454 -228 q 467 -153 467 -164 q 467 -129 467 -142 l 467 447 q 482 483 467 468 q 518 499 497 499 q 554 483 539 499 q 569 447 569 468 l 569 -128 q 569 -153 569 -140 q 567 -178 568 -165 m 517 656 q 554 640 539 656 q 569 604 569 625 q 554 567 569 582 q 517 551 539 551 q 480 567 494 551 q 465 604 465 582 q 480 640 465 625 q 517 656 494 656 z "},"K":{"ha":640,"x_min":69,"x_max":569,"o":"m 554 485 q 569 449 569 469 q 554 413 569 428 l 392 250 l 554 88 q 569 51 569 72 q 554 15 569 31 q 518 0 539 0 q 482 15 497 0 l 319 178 l 157 15 q 121 0 142 0 q 82 19 94 3 q 69 58 69 35 l 69 949 q 85 985 69 969 q 121 1000 100 1000 q 157 985 142 1000 q 172 949 172 969 l 172 175 l 482 485 q 518 500 497 500 q 554 485 539 500 z "},"L":{"ha":269,"x_min":83,"x_max":186,"o":"m 135 1000 q 171 985 156 1000 q 186 949 186 969 l 186 51 q 171 15 186 31 q 135 0 156 0 q 99 15 114 0 q 83 51 83 31 l 83 949 q 99 985 83 969 q 135 1000 114 1000 z "},"M":{"ha":1036,"x_min":69,"x_max":967,"o":"m 319 500 q 432 473 381 500 q 518 401 483 446 q 604 473 553 446 q 717 500 656 500 q 814 481 768 500 q 894 427 860 461 q 947 347 928 393 q 967 250 967 301 l 967 51 q 952 15 967 31 q 915 0 938 0 q 880 15 894 0 q 865 51 865 31 l 865 260 q 853 313 865 288 q 819 356 840 338 q 772 386 799 375 q 717 397 744 397 q 612 355 654 397 q 569 250 569 313 l 569 51 q 554 15 569 31 q 518 0 539 0 q 482 15 497 0 q 467 51 467 31 l 467 250 q 456 308 467 281 q 424 355 444 335 q 377 387 404 375 q 319 399 350 399 q 265 388 292 399 q 218 358 239 376 q 185 313 197 339 q 172 258 172 288 l 172 51 q 157 15 172 31 q 121 0 142 0 q 85 15 100 0 q 69 51 69 31 l 69 250 l 69 449 q 85 485 69 469 q 121 500 100 500 q 155 486 140 500 q 172 451 169 472 q 241 488 204 475 q 319 500 278 500 z "},"N":{"ha":625,"x_min":69,"x_max":569,"o":"m 319 500 q 416 481 371 500 q 495 427 461 461 q 549 348 529 393 q 569 251 569 303 l 569 51 q 554 15 569 31 q 518 0 539 0 q 482 15 497 0 q 467 51 467 31 l 467 250 q 455 308 467 281 q 424 355 443 335 q 377 387 404 375 q 319 399 350 399 q 265 388 292 399 q 218 357 239 376 q 185 313 197 338 q 172 258 172 288 l 172 51 q 157 15 172 31 q 121 0 142 0 q 85 15 100 0 q 69 51 69 31 l 69 250 l 69 449 q 85 485 69 469 q 121 500 100 500 q 155 486 140 500 q 172 451 169 472 q 240 488 203 475 q 319 500 278 500 z "},"P":{"ha":639,"x_min":69,"x_max":569,"o":"m 319 500 q 417 481 371 500 q 497 427 463 461 q 550 347 531 393 q 569 250 569 301 q 550 152 569 197 q 497 73 531 107 q 417 19 463 39 q 319 0 371 0 q 241 13 278 0 q 172 49 204 25 l 172 -344 q 157 -381 172 -367 q 121 -396 142 -396 q 85 -381 100 -396 q 69 -344 69 -367 l 69 250 q 82 327 69 290 q 117 396 94 364 q 83 413 96 397 q 69 447 69 428 q 85 485 69 469 q 122 500 100 500 q 156 486 142 500 q 174 453 171 472 q 242 488 206 475 q 319 500 279 500 m 319 397 q 262 385 289 397 q 215 354 235 374 q 183 308 194 335 q 171 250 171 281 q 183 192 171 219 q 215 145 194 165 q 262 113 235 125 q 319 101 289 101 q 377 113 350 101 q 424 145 404 125 q 456 192 444 165 q 468 250 468 219 q 456 308 468 281 q 424 354 444 335 q 377 385 404 374 q 319 397 350 397 z "},"Q":{"ha":639,"x_min":69,"x_max":569,"o":"m 319 500 q 397 488 360 500 q 465 453 433 475 q 483 486 468 472 q 517 500 497 500 q 554 485 539 500 q 569 447 569 469 q 556 413 569 428 q 522 396 543 397 q 557 327 544 364 q 569 250 569 290 l 569 -344 q 554 -381 569 -367 q 518 -396 539 -396 q 482 -381 497 -396 q 467 -344 467 -367 l 467 49 q 398 13 435 25 q 319 0 361 0 q 222 19 268 0 q 142 73 176 39 q 89 152 108 107 q 69 250 69 197 q 89 347 69 301 q 142 427 108 393 q 222 481 176 461 q 319 500 268 500 m 319 397 q 262 385 289 397 q 215 354 235 374 q 183 308 194 335 q 171 250 171 281 q 183 192 171 219 q 215 145 194 165 q 262 113 235 125 q 319 101 289 101 q 377 113 350 101 q 424 145 404 125 q 456 192 444 165 q 468 250 468 219 q 456 308 468 281 q 424 354 444 335 q 377 385 404 374 q 319 397 350 397 z "},"R":{"ha":594,"x_min":69,"x_max":550,"o":"m 121 500 q 156 486 140 500 q 172 451 171 472 q 241 488 204 475 q 319 500 278 500 q 447 466 390 500 q 536 374 504 432 q 543 331 550 350 q 519 302 536 311 q 482 297 503 293 q 447 325 461 301 q 394 378 428 358 q 319 399 360 399 q 261 387 288 399 q 215 355 235 375 q 183 308 194 335 q 172 250 172 281 l 172 51 q 157 15 172 31 q 121 0 142 0 q 85 15 100 0 q 69 51 69 31 l 69 449 q 85 485 69 469 q 121 500 100 500 z "},"S":{"ha":639,"x_min":69,"x_max":569,"o":"m 569 449 q 554 413 569 428 q 518 397 539 397 l 219 397 q 186 383 200 397 q 172 349 172 369 q 186 315 172 329 q 219 301 200 301 l 418 301 l 426 301 q 482 288 456 300 q 528 255 508 275 q 558 208 547 235 q 569 150 569 181 q 558 92 569 119 q 526 45 546 65 q 478 13 506 25 q 421 0 451 0 l 417 0 l 121 0 q 85 15 100 0 q 69 51 69 31 q 85 88 69 72 q 121 103 100 103 l 419 103 q 453 117 439 103 q 467 150 467 131 q 453 184 467 169 q 419 199 439 199 l 219 199 q 160 210 188 199 q 113 243 133 222 q 81 291 93 264 q 69 349 69 318 q 81 407 69 379 q 113 455 93 435 q 160 488 133 475 q 218 500 188 500 l 518 500 q 554 485 539 500 q 569 449 569 469 z "},"T":{"ha":724,"x_min":0,"x_max":654,"o":"m 654 250 q 635 153 654 199 q 581 73 615 107 q 501 19 547 39 q 404 0 456 0 q 308 19 353 0 q 229 72 263 39 q 176 150 196 106 q 154 244 156 194 l 154 500 l 51 500 q 15 515 31 500 q 0 551 0 531 q 15 588 0 572 q 51 603 31 603 l 154 603 l 154 949 q 169 985 154 969 q 206 1000 185 1000 q 242 985 226 1000 q 257 949 257 969 l 257 603 l 514 603 q 550 588 535 603 q 565 551 565 572 q 550 515 565 531 q 514 500 535 500 l 257 500 l 257 235 q 304 140 263 179 q 404 101 346 101 q 462 113 435 101 q 509 145 489 125 q 541 192 529 165 q 553 250 553 219 q 567 286 553 271 q 603 301 582 301 q 640 286 625 301 q 654 250 654 271 z "},"U":{"ha":639,"x_min":69,"x_max":569,"o":"m 319 0 q 223 19 268 0 q 144 73 178 39 q 90 152 110 107 q 69 249 69 197 l 69 449 q 85 485 69 469 q 121 500 100 500 q 157 485 142 500 q 172 449 172 469 l 172 250 q 184 192 172 219 q 215 145 196 165 q 262 113 235 125 q 319 101 289 101 q 374 113 347 101 q 421 142 400 124 q 454 187 442 161 q 467 242 467 213 l 467 449 q 482 485 467 469 q 518 500 497 500 q 554 485 539 500 q 569 449 569 469 l 569 250 l 569 51 q 554 15 569 31 q 518 0 539 0 q 483 14 499 0 q 467 49 468 28 q 398 13 435 25 q 319 0 361 0 z "},"V":{"ha":639,"x_min":65,"x_max":574,"o":"m 97 494 q 137 498 117 504 q 167 472 157 492 l 319 165 l 472 472 q 502 498 482 492 q 542 494 522 504 q 567 465 561 485 q 564 426 574 446 l 368 32 q 319 0 351 0 q 271 33 286 0 l 75 426 q 72 465 65 446 q 97 494 78 485 z "},"W":{"ha":1036,"x_min":69,"x_max":967,"o":"m 518 99 q 432 27 483 54 q 319 0 381 0 q 223 19 268 0 q 144 73 178 39 q 90 152 110 107 q 69 249 69 197 l 69 449 q 85 485 69 469 q 121 500 100 500 q 157 485 142 500 q 172 449 172 469 l 172 250 q 184 192 172 219 q 215 145 196 165 q 262 113 235 125 q 319 101 289 101 q 377 113 350 101 q 424 145 404 125 q 456 192 444 165 q 467 250 467 219 l 467 449 q 482 485 467 471 q 519 500 497 500 q 555 484 540 499 q 569 449 569 469 l 569 250 q 581 192 569 219 q 613 145 593 165 q 659 113 632 125 q 717 101 686 101 q 774 113 747 101 q 822 145 801 125 q 853 192 842 165 q 864 250 864 219 l 864 449 q 879 485 864 469 q 915 500 894 500 q 951 485 936 500 q 967 449 967 469 l 967 250 q 947 153 967 199 q 894 73 928 107 q 814 19 860 39 q 717 0 768 0 q 604 27 656 0 q 518 99 553 54 z "},"X":{"ha":642,"x_min":71,"x_max":571,"o":"m 556 485 q 571 449 571 469 q 556 413 571 428 l 393 250 l 556 88 q 571 51 571 72 q 556 15 571 31 q 519 0 540 0 q 483 15 499 0 l 321 178 l 158 15 q 122 0 143 0 q 86 15 101 0 q 71 51 71 31 q 86 88 71 72 l 249 250 l 86 413 q 71 449 71 428 q 86 485 71 469 q 122 500 101 500 q 158 485 143 500 l 321 322 l 483 485 q 519 500 499 500 q 556 485 540 500 z "},"Z":{"ha":642,"x_min":69,"x_max":571,"o":"m 556 485 q 571 449 571 469 q 556 413 571 428 l 246 103 l 519 103 q 556 88 540 103 q 571 51 571 72 q 556 15 571 31 q 519 0 540 0 l 122 0 q 93 9 106 0 q 75 32 81 18 q 72 60 69 46 q 86 88 74 75 l 396 397 l 122 397 q 86 413 101 397 q 71 449 71 428 q 86 485 71 469 q 122 500 101 500 l 519 500 q 556 485 540 500 z "},"I":{"ha":242,"x_min":69,"x_max":172,"o":"m 121 492 q 156 477 142 492 q 171 442 171 463 l 171 50 q 156 15 171 29 q 121 0 142 0 q 85 15 100 0 q 71 50 71 29 l 71 442 q 85 477 71 463 q 121 492 100 492 m 121 646 q 157 631 142 646 q 172 594 172 617 q 157 558 172 574 q 121 543 142 543 q 85 558 100 543 q 69 594 69 574 q 85 631 69 617 q 121 646 100 646 z "},"A":{"ha":653,"x_min":69,"x_max":569,"o":"m 319 500 q 398 488 361 500 q 467 453 435 475 q 483 486 468 472 q 518 500 499 500 q 554 485 539 500 q 569 449 569 469 l 569 51 q 554 15 569 31 q 518 0 539 0 q 483 14 499 0 q 467 47 468 28 q 398 13 435 25 q 319 0 361 0 q 222 19 268 0 q 142 73 176 39 q 89 153 108 107 q 69 250 69 199 q 89 347 69 301 q 142 427 108 393 q 222 481 176 461 q 319 500 268 500 m 319 399 q 262 387 289 399 q 215 355 235 375 q 183 308 194 335 q 171 250 171 281 q 183 192 171 219 q 215 145 194 165 q 262 113 235 125 q 319 101 289 101 q 377 113 350 101 q 424 145 404 125 q 456 192 444 165 q 468 250 468 219 q 456 308 468 281 q 424 355 444 335 q 377 387 404 375 q 319 399 350 399 z "},"B":{"ha":639,"x_min":69,"x_max":569,"o":"m 121 1000 q 157 985 142 1000 q 172 949 172 969 l 172 451 q 241 488 204 475 q 319 500 278 500 q 417 481 371 500 q 497 427 463 461 q 550 347 531 393 q 569 250 569 301 q 550 153 569 199 q 497 73 531 107 q 417 19 463 39 q 319 0 371 0 q 241 13 278 0 q 172 49 204 25 q 156 14 171 28 q 121 0 140 0 q 85 15 100 0 q 69 51 69 31 l 69 949 q 85 985 69 969 q 121 1000 100 1000 m 319 399 q 262 387 289 399 q 215 355 235 375 q 183 308 194 335 q 171 250 171 281 q 183 192 171 219 q 215 145 194 165 q 262 113 235 125 q 319 101 289 101 q 377 113 350 101 q 424 145 404 125 q 456 192 444 165 q 468 250 468 219 q 456 308 468 281 q 424 355 444 335 q 377 387 404 375 q 319 399 350 399 z "},"C":{"ha":588,"x_min":56,"x_max":536,"o":"m 306 500 q 433 466 376 500 q 522 374 490 432 q 529 331 536 350 q 506 302 522 311 q 468 297 489 293 q 433 325 447 301 q 380 378 414 358 q 306 399 346 399 q 248 387 275 399 q 201 355 221 375 q 169 308 181 335 q 157 250 157 281 q 169 192 157 219 q 201 145 181 165 q 248 113 221 125 q 306 101 275 101 q 377 119 344 101 q 429 168 410 138 l 438 181 q 472 203 451 201 q 507 197 492 206 q 528 169 522 188 q 524 128 535 150 q 432 34 493 68 q 306 0 371 0 q 208 19 254 0 q 128 73 163 39 q 75 153 94 107 q 56 250 56 199 q 75 347 56 301 q 128 427 94 393 q 208 481 163 461 q 306 500 254 500 z "},"D":{"ha":653,"x_min":69,"x_max":569,"o":"m 518 1000 q 554 985 539 1000 q 569 949 569 969 l 569 51 q 554 15 569 31 q 518 0 539 0 q 483 14 497 0 q 467 49 468 28 q 398 13 435 25 q 319 0 361 0 q 222 19 268 0 q 142 73 176 39 q 89 153 108 107 q 69 250 69 199 q 89 347 69 301 q 142 427 108 393 q 222 481 176 461 q 319 500 268 500 q 398 488 361 500 q 467 451 435 475 l 467 949 q 482 985 467 969 q 518 1000 497 1000 m 319 399 q 262 387 289 399 q 215 355 235 375 q 183 308 194 335 q 171 250 171 281 q 183 192 171 219 q 215 145 194 165 q 262 113 235 125 q 319 101 289 101 q 377 113 350 101 q 424 145 404 125 q 456 192 444 165 q 468 250 468 219 q 456 308 468 281 q 424 355 444 335 q 377 387 404 375 q 319 399 350 399 z "},"a":{"ha":653,"x_min":69,"x_max":569,"o":"m 319 500 q 398 488 361 500 q 467 453 435 475 q 483 486 468 472 q 518 500 499 500 q 554 485 539 500 q 569 449 569 469 l 569 51 q 554 15 569 31 q 518 0 539 0 q 483 14 499 0 q 467 47 468 28 q 398 13 435 25 q 319 0 361 0 q 222 19 268 0 q 142 73 176 39 q 89 153 108 107 q 69 250 69 199 q 89 347 69 301 q 142 427 108 393 q 222 481 176 461 q 319 500 268 500 m 319 399 q 262 387 289 399 q 215 355 235 375 q 183 308 194 335 q 171 250 171 281 q 183 192 171 219 q 215 145 194 165 q 262 113 235 125 q 319 101 289 101 q 377 113 350 101 q 424 145 404 125 q 456 192 444 165 q 468 250 468 219 q 456 308 468 281 q 424 355 444 335 q 377 387 404 375 q 319 399 350 399 z "},"b":{"ha":639,"x_min":69,"x_max":569,"o":"m 121 1000 q 157 985 142 1000 q 172 949 172 969 l 172 451 q 241 488 204 475 q 319 500 278 500 q 417 481 371 500 q 497 427 463 461 q 550 347 531 393 q 569 250 569 301 q 550 153 569 199 q 497 73 531 107 q 417 19 463 39 q 319 0 371 0 q 241 13 278 0 q 172 49 204 25 q 156 14 171 28 q 121 0 140 0 q 85 15 100 0 q 69 51 69 31 l 69 949 q 85 985 69 969 q 121 1000 100 1000 m 319 399 q 262 387 289 399 q 215 355 235 375 q 183 308 194 335 q 171 250 171 281 q 183 192 171 219 q 215 145 194 165 q 262 113 235 125 q 319 101 289 101 q 377 113 350 101 q 424 145 404 125 q 456 192 444 165 q 468 250 468 219 q 456 308 468 281 q 424 355 444 335 q 377 387 404 375 q 319 399 350 399 z "},"c":{"ha":588,"x_min":56,"x_max":536,"o":"m 306 500 q 433 466 376 500 q 522 374 490 432 q 529 331 536 350 q 506 302 522 311 q 468 297 489 293 q 433 325 447 301 q 380 378 414 358 q 306 399 346 399 q 248 387 275 399 q 201 355 221 375 q 169 308 181 335 q 157 250 157 281 q 169 192 157 219 q 201 145 181 165 q 248 113 221 125 q 306 101 275 101 q 377 119 344 101 q 429 168 410 138 l 438 181 q 472 203 451 201 q 507 197 492 206 q 528 169 522 188 q 524 128 535 150 q 432 34 493 68 q 306 0 371 0 q 208 19 254 0 q 128 73 163 39 q 75 153 94 107 q 56 250 56 199 q 75 347 56 301 q 128 427 94 393 q 208 481 163 461 q 306 500 254 500 z "},"d":{"ha":653,"x_min":69,"x_max":569,"o":"m 518 1000 q 554 985 539 1000 q 569 949 569 969 l 569 51 q 554 15 569 31 q 518 0 539 0 q 483 14 497 0 q 467 49 468 28 q 398 13 435 25 q 319 0 361 0 q 222 19 268 0 q 142 73 176 39 q 89 153 108 107 q 69 250 69 199 q 89 347 69 301 q 142 427 108 393 q 222 481 176 461 q 319 500 268 500 q 398 488 361 500 q 467 451 435 475 l 467 949 q 482 985 467 969 q 518 1000 497 1000 m 319 399 q 262 387 289 399 q 215 355 235 375 q 183 308 194 335 q 171 250 171 281 q 183 192 171 219 q 215 145 194 165 q 262 113 235 125 q 319 101 289 101 q 377 113 350 101 q 424 145 404 125 q 456 192 444 165 q 468 250 468 219 q 456 308 468 281 q 424 355 444 335 q 377 387 404 375 q 319 399 350 399 z "},"e":{"ha":615,"x_min":69,"x_max":549,"o":"m 319 500 q 447 466 390 500 q 536 374 504 432 q 544 334 549 353 q 524 304 539 315 l 228 133 q 270 110 247 118 q 319 101 293 101 q 451 181 399 101 q 485 203 465 201 q 521 197 506 206 q 542 169 536 188 q 538 128 549 150 q 446 34 507 68 q 319 0 385 0 q 222 19 268 0 q 142 73 176 39 q 89 153 108 107 q 69 250 69 199 q 89 347 69 301 q 142 427 108 393 q 222 481 176 461 q 319 500 268 500 m 417 361 q 319 399 375 399 q 262 387 289 399 q 215 355 235 375 q 183 308 194 335 q 171 250 171 281 q 172 236 171 243 q 174 222 172 229 l 417 361 z "},"f":{"ha":639,"x_min":69,"x_max":569,"o":"m 569 750 q 555 714 569 729 q 518 699 540 699 q 483 714 497 699 q 468 750 468 729 q 456 808 468 781 q 424 855 444 835 q 377 887 404 875 q 319 899 350 899 q 219 860 261 899 q 172 764 178 821 l 172 603 l 378 603 q 414 588 399 603 q 429 551 429 574 q 414 516 429 531 q 378 501 399 501 l 172 501 l 172 51 q 157 15 172 31 q 121 0 142 0 q 85 15 100 0 q 69 51 69 31 l 69 756 q 91 850 71 806 q 144 928 111 894 q 223 981 178 961 q 319 1000 268 1000 q 417 981 371 1000 q 497 927 463 961 q 550 847 531 893 q 569 750 569 801 z "},"h":{"ha":639,"x_min":69,"x_max":569,"o":"m 319 500 q 416 481 371 500 q 495 427 461 461 q 549 348 529 393 q 569 251 569 303 l 569 51 q 554 15 569 31 q 518 0 539 0 q 482 15 497 0 q 467 51 467 31 l 467 250 q 455 308 467 281 q 424 355 443 335 q 377 387 404 375 q 319 399 350 399 q 265 388 292 399 q 218 357 239 376 q 185 313 197 338 q 172 258 172 288 l 172 51 q 157 15 172 31 q 121 0 142 0 q 85 15 100 0 q 69 51 69 31 l 69 949 q 85 985 69 969 q 121 1000 100 1000 q 157 985 142 1000 q 172 949 172 969 l 172 451 q 241 488 204 475 q 319 500 278 500 z "},"i":{"ha":242,"x_min":69,"x_max":172,"o":"m 121 492 q 156 477 142 492 q 171 442 171 463 l 171 50 q 156 15 171 29 q 121 0 142 0 q 85 15 100 0 q 71 50 71 29 l 71 442 q 85 477 71 463 q 121 492 100 492 m 121 646 q 157 631 142 646 q 172 594 172 617 q 157 558 172 574 q 121 543 142 543 q 85 558 100 543 q 69 594 69 574 q 85 631 69 617 q 121 646 100 646 z "},"j":{"ha":639,"x_min":69,"x_max":569,"o":"m 567 -178 q 540 -264 561 -224 q 486 -334 519 -304 q 410 -381 453 -364 q 319 -397 367 -397 q 226 -379 269 -397 q 149 -330 182 -361 q 94 -256 115 -299 q 71 -165 74 -214 q 70 -150 71 -158 q 71 -135 69 -142 q 88 -103 74 -115 q 121 -92 101 -92 q 154 -103 140 -92 q 171 -133 168 -115 q 173 -157 174 -146 q 175 -182 172 -168 q 194 -228 181 -207 q 227 -264 208 -249 q 269 -287 246 -279 q 319 -296 293 -296 q 413 -262 372 -296 q 464 -176 454 -228 q 467 -153 467 -164 q 467 -129 467 -142 l 467 447 q 482 483 467 468 q 518 499 497 499 q 554 483 539 499 q 569 447 569 468 l 569 -128 q 569 -153 569 -140 q 567 -178 568 -165 m 517 656 q 554 640 539 656 q 569 604 569 625 q 554 567 569 582 q 517 551 539 551 q 480 567 494 551 q 465 604 465 582 q 480 640 465 625 q 517 656 494 656 z "},"k":{"ha":640,"x_min":69,"x_max":569,"o":"m 554 485 q 569 449 569 469 q 554 413 569 428 l 392 250 l 554 88 q 569 51 569 72 q 554 15 569 31 q 518 0 539 0 q 482 15 497 0 l 319 178 l 157 15 q 121 0 142 0 q 82 19 94 3 q 69 58 69 35 l 69 949 q 85 985 69 969 q 121 1000 100 1000 q 157 985 142 1000 q 172 949 172 969 l 172 175 l 482 485 q 518 500 497 500 q 554 485 539 500 z "},"l":{"ha":269,"x_min":83,"x_max":186,"o":"m 135 1000 q 171 985 156 1000 q 186 949 186 969 l 186 51 q 171 15 186 31 q 135 0 156 0 q 99 15 114 0 q 83 51 83 31 l 83 949 q 99 985 83 969 q 135 1000 114 1000 z "},"m":{"ha":1036,"x_min":69,"x_max":967,"o":"m 319 500 q 432 473 381 500 q 518 401 483 446 q 604 473 553 446 q 717 500 656 500 q 814 481 768 500 q 894 427 860 461 q 947 347 928 393 q 967 250 967 301 l 967 51 q 952 15 967 31 q 915 0 938 0 q 880 15 894 0 q 865 51 865 31 l 865 260 q 853 313 865 288 q 819 356 840 338 q 772 386 799 375 q 717 397 744 397 q 612 355 654 397 q 569 250 569 313 l 569 51 q 554 15 569 31 q 518 0 539 0 q 482 15 497 0 q 467 51 467 31 l 467 250 q 456 308 467 281 q 424 355 444 335 q 377 387 404 375 q 319 399 350 399 q 265 388 292 399 q 218 358 239 376 q 185 313 197 339 q 172 258 172 288 l 172 51 q 157 15 172 31 q 121 0 142 0 q 85 15 100 0 q 69 51 69 31 l 69 250 l 69 449 q 85 485 69 469 q 121 500 100 500 q 155 486 140 500 q 172 451 169 472 q 241 488 204 475 q 319 500 278 500 z "},"n":{"ha":625,"x_min":69,"x_max":569,"o":"m 319 500 q 416 481 371 500 q 495 427 461 461 q 549 348 529 393 q 569 251 569 303 l 569 51 q 554 15 569 31 q 518 0 539 0 q 482 15 497 0 q 467 51 467 31 l 467 250 q 455 308 467 281 q 424 355 443 335 q 377 387 404 375 q 319 399 350 399 q 265 388 292 399 q 218 357 239 376 q 185 313 197 338 q 172 258 172 288 l 172 51 q 157 15 172 31 q 121 0 142 0 q 85 15 100 0 q 69 51 69 31 l 69 250 l 69 449 q 85 485 69 469 q 121 500 100 500 q 155 486 140 500 q 172 451 169 472 q 240 488 203 475 q 319 500 278 500 z "},"o":{"ha":639,"x_min":69,"x_max":569,"o":"m 319 500 q 417 481 371 500 q 497 427 463 461 q 550 347 531 393 q 569 250 569 301 q 550 153 569 199 q 497 73 531 107 q 417 19 463 39 q 319 0 371 0 q 222 19 268 0 q 142 73 176 39 q 89 153 108 107 q 69 250 69 199 q 89 347 69 301 q 142 427 108 393 q 222 481 176 461 q 319 500 268 500 m 319 399 q 262 387 289 399 q 215 355 235 375 q 183 308 194 335 q 171 250 171 281 q 183 192 171 219 q 215 145 194 165 q 262 113 235 125 q 319 101 289 101 q 377 113 350 101 q 424 145 404 125 q 456 192 444 165 q 468 250 468 219 q 456 308 468 281 q 424 355 444 335 q 377 387 404 375 q 319 399 350 399 z "},"p":{"ha":639,"x_min":69,"x_max":569,"o":"m 319 500 q 417 481 371 500 q 497 427 463 461 q 550 347 531 393 q 569 250 569 301 q 550 152 569 197 q 497 73 531 107 q 417 19 463 39 q 319 0 371 0 q 241 13 278 0 q 172 49 204 25 l 172 -344 q 157 -381 172 -367 q 121 -396 142 -396 q 85 -381 100 -396 q 69 -344 69 -367 l 69 250 q 82 327 69 290 q 117 396 94 364 q 83 413 96 397 q 69 447 69 428 q 85 485 69 469 q 122 500 100 500 q 156 486 142 500 q 174 453 171 472 q 242 488 206 475 q 319 500 279 500 m 319 397 q 262 385 289 397 q 215 354 235 374 q 183 308 194 335 q 171 250 171 281 q 183 192 171 219 q 215 145 194 165 q 262 113 235 125 q 319 101 289 101 q 377 113 350 101 q 424 145 404 125 q 456 192 444 165 q 468 250 468 219 q 456 308 468 281 q 424 354 444 335 q 377 385 404 374 q 319 397 350 397 z "},"q":{"ha":639,"x_min":69,"x_max":569,"o":"m 319 500 q 397 488 360 500 q 465 453 433 475 q 483 486 468 472 q 517 500 497 500 q 554 485 539 500 q 569 447 569 469 q 556 413 569 428 q 522 396 543 397 q 557 327 544 364 q 569 250 569 290 l 569 -344 q 554 -381 569 -367 q 518 -396 539 -396 q 482 -381 497 -396 q 467 -344 467 -367 l 467 49 q 398 13 435 25 q 319 0 361 0 q 222 19 268 0 q 142 73 176 39 q 89 152 108 107 q 69 250 69 197 q 89 347 69 301 q 142 427 108 393 q 222 481 176 461 q 319 500 268 500 m 319 397 q 262 385 289 397 q 215 354 235 374 q 183 308 194 335 q 171 250 171 281 q 183 192 171 219 q 215 145 194 165 q 262 113 235 125 q 319 101 289 101 q 377 113 350 101 q 424 145 404 125 q 456 192 444 165 q 468 250 468 219 q 456 308 468 281 q 424 354 444 335 q 377 385 404 374 q 319 397 350 397 z "},"r":{"ha":594,"x_min":69,"x_max":550,"o":"m 121 500 q 156 486 140 500 q 172 451 171 472 q 241 488 204 475 q 319 500 278 500 q 447 466 390 500 q 536 374 504 432 q 543 331 550 350 q 519 302 536 311 q 482 297 503 293 q 447 325 461 301 q 394 378 428 358 q 319 399 360 399 q 261 387 288 399 q 215 355 235 375 q 183 308 194 335 q 172 250 172 281 l 172 51 q 157 15 172 31 q 121 0 142 0 q 85 15 100 0 q 69 51 69 31 l 69 449 q 85 485 69 469 q 121 500 100 500 z "},"s":{"ha":639,"x_min":69,"x_max":569,"o":"m 569 449 q 554 413 569 428 q 518 397 539 397 l 219 397 q 186 383 200 397 q 172 349 172 369 q 186 315 172 329 q 219 301 200 301 l 418 301 l 426 301 q 482 288 456 300 q 528 255 508 275 q 558 208 547 235 q 569 150 569 181 q 558 92 569 119 q 526 45 546 65 q 478 13 506 25 q 421 0 451 0 l 417 0 l 121 0 q 85 15 100 0 q 69 51 69 31 q 85 88 69 72 q 121 103 100 103 l 419 103 q 453 117 439 103 q 467 150 467 131 q 453 184 467 169 q 419 199 439 199 l 219 199 q 160 210 188 199 q 113 243 133 222 q 81 291 93 264 q 69 349 69 318 q 81 407 69 379 q 113 455 93 435 q 160 488 133 475 q 218 500 188 500 l 518 500 q 554 485 539 500 q 569 449 569 469 z "},"t":{"ha":724,"x_min":0,"x_max":654,"o":"m 654 250 q 635 153 654 199 q 581 73 615 107 q 501 19 547 39 q 404 0 456 0 q 308 19 353 0 q 229 72 263 39 q 176 150 196 106 q 154 244 156 194 l 154 500 l 51 500 q 15 515 31 500 q 0 551 0 531 q 15 588 0 572 q 51 603 31 603 l 154 603 l 154 949 q 169 985 154 969 q 206 1000 185 1000 q 242 985 226 1000 q 257 949 257 969 l 257 603 l 514 603 q 550 588 535 603 q 565 551 565 572 q 550 515 565 531 q 514 500 535 500 l 257 500 l 257 235 q 304 140 263 179 q 404 101 346 101 q 462 113 435 101 q 509 145 489 125 q 541 192 529 165 q 553 250 553 219 q 567 286 553 271 q 603 301 582 301 q 640 286 625 301 q 654 250 654 271 z "},"v":{"ha":639,"x_min":65,"x_max":574,"o":"m 97 494 q 137 498 117 504 q 167 472 157 492 l 319 165 l 472 472 q 502 498 482 492 q 542 494 522 504 q 567 465 561 485 q 564 426 574 446 l 368 32 q 319 0 351 0 q 271 33 286 0 l 75 426 q 72 465 65 446 q 97 494 78 485 z "},"w":{"ha":1036,"x_min":69,"x_max":967,"o":"m 518 99 q 432 27 483 54 q 319 0 381 0 q 223 19 268 0 q 144 73 178 39 q 90 152 110 107 q 69 249 69 197 l 69 449 q 85 485 69 469 q 121 500 100 500 q 157 485 142 500 q 172 449 172 469 l 172 250 q 184 192 172 219 q 215 145 196 165 q 262 113 235 125 q 319 101 289 101 q 377 113 350 101 q 424 145 404 125 q 456 192 444 165 q 467 250 467 219 l 467 449 q 482 485 467 471 q 519 500 497 500 q 555 484 540 499 q 569 449 569 469 l 569 250 q 581 192 569 219 q 613 145 593 165 q 659 113 632 125 q 717 101 686 101 q 774 113 747 101 q 822 145 801 125 q 853 192 842 165 q 864 250 864 219 l 864 449 q 879 485 864 469 q 915 500 894 500 q 951 485 936 500 q 967 449 967 469 l 967 250 q 947 153 967 199 q 894 73 928 107 q 814 19 860 39 q 717 0 768 0 q 604 27 656 0 q 518 99 553 54 z "},"x":{"ha":642,"x_min":71,"x_max":571,"o":"m 556 485 q 571 449 571 469 q 556 413 571 428 l 393 250 l 556 88 q 571 51 571 72 q 556 15 571 31 q 519 0 540 0 q 483 15 499 0 l 321 178 l 158 15 q 122 0 143 0 q 86 15 101 0 q 71 51 71 31 q 86 88 71 72 l 249 250 l 86 413 q 71 449 71 428 q 86 485 71 469 q 122 500 101 500 q 158 485 143 500 l 321 322 l 483 485 q 519 500 499 500 q 556 485 540 500 z "},"z":{"ha":642,"x_min":69,"x_max":571,"o":"m 556 485 q 571 449 571 469 q 556 413 571 428 l 246 103 l 519 103 q 556 88 540 103 q 571 51 571 72 q 556 15 571 31 q 519 0 540 0 l 122 0 q 93 9 106 0 q 75 32 81 18 q 72 60 69 46 q 86 88 74 75 l 396 397 l 122 397 q 86 413 101 397 q 71 449 71 428 q 86 485 71 469 q 122 500 101 500 l 519 500 q 556 485 540 500 z "},"!":{"ha":242,"x_min":69,"x_max":172,"o":"m 121 154 q 85 169 100 154 q 71 204 71 183 l 71 950 q 85 985 71 971 q 121 1000 100 1000 q 156 985 142 1000 q 171 950 171 971 l 171 204 q 156 169 171 183 q 121 154 142 154 m 121 0 q 85 15 100 0 q 69 51 69 31 q 85 88 69 72 q 121 103 100 103 q 157 88 142 103 q 172 51 172 72 q 157 15 172 31 q 121 0 142 0 z "},".":{"ha":242,"x_min":69,"x_max":172,"o":"m 121 0 q 85 15 100 0 q 69 51 69 31 q 85 88 69 72 q 121 103 100 103 q 157 88 142 103 q 172 51 172 72 q 157 15 172 31 q 121 0 142 0 z "},"*":{"ha":368,"x_min":71,"x_max":299,"o":"m 283 788 q 247 772 268 772 q 211 788 226 772 l 185 814 l 158 788 q 122 772 143 772 q 86 788 101 772 q 71 824 71 803 q 86 860 71 844 l 113 886 l 86 913 q 71 949 71 928 q 86 985 71 969 q 122 1000 101 1000 q 158 985 143 1000 l 185 958 l 211 985 q 247 1000 226 1000 q 283 985 268 1000 q 299 949 299 969 q 283 913 299 928 l 257 886 l 283 860 q 299 824 299 844 q 283 788 299 803 z "},"/":{"ha":588,"x_min":67,"x_max":522,"o":"m 485 997 q 513 969 504 989 q 514 931 522 950 l 169 33 q 143 5 163 14 q 104 3 124 -4 q 76 31 85 11 q 74 69 67 50 l 418 967 q 446 995 426 986 q 485 997 465 1004 z "},"+":{"ha":418,"x_min":69,"x_max":349,"o":"m 349 500 q 334 464 349 479 q 297 449 319 449 l 261 449 l 261 411 q 246 375 261 390 q 210 360 231 360 q 174 375 189 360 q 158 411 158 390 l 158 449 l 121 449 q 85 464 100 449 q 69 500 69 479 q 85 536 69 521 q 121 551 100 551 l 158 551 l 158 588 q 174 624 158 610 q 210 639 189 639 q 246 624 231 639 q 261 588 261 610 l 261 551 l 297 551 q 334 536 319 551 q 349 500 349 521 z "},"-":{"ha":418,"x_min":69,"x_max":349,"o":"m 349 500 q 334 464 349 479 q 297 449 319 449 l 121 449 q 85 464 100 449 q 69 500 69 479 q 85 536 69 521 q 121 551 100 551 l 297 551 q 334 536 319 551 q 349 500 349 521 z "},"−":{"ha":1157,"x_min":110,"x_max":389,"o":"m 389 500 q 374 464 389 479 q 338 449 360 449 l 161 449 q 125 464 140 449 q 110 500 110 479 q 125 536 110 521 q 161 551 140 551 l 338 551 q 374 536 360 551 q 389 500 389 521 z "},"u":{"ha":639,"x_min":69,"x_max":569,"o":"m 319 0 q 223 19 268 0 q 144 73 178 39 q 90 152 110 107 q 69 249 69 197 l 69 449 q 85 485 69 469 q 121 500 100 500 q 157 485 142 500 q 172 449 172 469 l 172 250 q 184 192 172 219 q 215 145 196 165 q 262 113 235 125 q 319 101 289 101 q 374 113 347 101 q 421 142 400 124 q 454 187 442 161 q 467 242 467 213 l 467 449 q 482 485 467 469 q 518 500 497 500 q 554 485 539 500 q 569 449 569 469 l 569 250 l 569 51 q 554 15 569 31 q 518 0 539 0 q 483 14 499 0 q 467 49 468 28 q 398 13 435 25 q 319 0 361 0 z "},"&":{"ha":813,"x_min":69,"x_max":743,"o":"m 265 469 q 197 399 222 443 q 171 301 171 354 q 187 224 171 260 q 230 160 203 188 q 293 117 257 133 q 371 101 329 101 q 440 114 407 101 q 499 149 472 126 l 265 469 m 743 450 q 728 415 743 429 q 693 400 714 400 l 671 400 q 672 332 671 364 q 669 269 672 300 q 656 207 665 238 q 628 144 647 176 l 674 81 q 683 43 686 64 q 663 10 681 22 q 624 1 646 -3 q 590 21 603 4 l 558 65 q 472 17 519 35 q 371 0 424 0 q 253 24 308 0 q 158 88 199 47 q 93 184 117 129 q 69 301 69 239 q 106 447 69 381 q 204 553 143 513 q 171 599 186 578 q 144 643 156 621 q 127 691 133 665 q 121 750 121 717 q 140 847 121 801 q 194 927 160 893 q 273 981 228 961 q 371 1000 318 1000 q 501 963 443 1000 q 592 865 560 926 q 621 750 621 811 q 606 714 619 729 q 569 699 592 699 q 533 714 549 699 q 518 750 518 729 q 506 808 518 781 q 474 855 494 835 q 428 887 454 875 q 371 899 401 899 q 313 887 340 899 q 266 855 286 875 q 234 808 246 835 q 222 750 222 781 q 227 709 222 729 q 244 674 232 689 l 560 239 q 569 318 571 274 q 568 400 568 363 l 547 400 q 512 415 526 400 q 497 450 497 429 q 512 485 497 471 q 547 500 526 500 l 693 500 q 728 485 714 500 q 743 450 743 471 z "},"(":{"ha":440,"x_min":69,"x_max":371,"o":"m 319 0 q 297 7 308 0 q 274 23 285 14 q 253 42 263 32 q 236 61 243 53 q 114 257 158 144 q 69 500 69 369 q 116 748 69 633 q 243 946 163 863 q 277 981 257 961 q 319 1000 297 1000 q 356 985 340 1000 q 371 949 371 969 q 356 913 371 928 q 216 737 268 844 q 164 500 164 629 q 216 263 164 371 q 356 88 268 156 q 371 51 371 72 q 356 15 371 31 q 319 0 340 0 z "},")":{"ha":440,"x_min":69,"x_max":371,"o":"m 121 0 q 85 15 100 0 q 69 51 69 31 q 85 88 69 72 q 224 263 172 156 q 276 500 276 371 q 224 737 276 629 q 85 913 172 844 q 69 949 69 928 q 85 985 69 969 q 121 1000 100 1000 q 163 981 143 1000 q 197 946 183 961 q 324 748 278 863 q 371 500 371 633 q 326 257 371 369 q 204 61 282 144 q 188 42 197 53 q 167 23 178 32 q 144 7 156 14 q 121 0 132 0 z "},"£":{"ha":639,"x_min":69,"x_max":569,"o":"m 319 1000 q 417 981 371 1000 q 497 927 463 961 q 550 847 531 893 q 569 750 569 801 q 555 714 569 729 q 518 699 540 699 q 483 714 497 699 q 468 750 468 729 q 456 807 468 781 q 424 853 444 833 q 378 886 404 874 q 321 899 351 899 q 283 892 301 899 q 249 875 265 886 q 190 807 208 847 q 172 726 172 767 l 172 499 l 319 499 q 355 484 340 499 q 369 449 369 469 q 355 413 369 428 q 319 397 340 397 l 172 397 l 172 100 l 519 100 q 555 85 540 100 q 569 50 569 71 q 555 15 569 29 q 519 0 540 0 l 118 0 q 84 16 99 1 q 69 51 69 31 l 69 750 q 89 847 69 801 q 142 927 108 893 q 222 981 176 961 q 319 1000 268 1000 z "},"\"":{"ha":394,"x_min":69,"x_max":325,"o":"m 274 1000 q 310 985 296 1000 q 325 949 325 969 l 325 772 q 310 736 325 751 q 274 721 296 721 q 238 736 253 721 q 222 772 222 751 l 222 949 q 238 985 222 969 q 274 1000 253 1000 m 121 1000 q 156 985 142 1000 q 171 949 171 969 l 171 772 q 156 736 171 751 q 121 721 142 721 q 84 736 99 721 q 69 772 69 751 l 69 949 q 84 985 69 969 q 121 1000 99 1000 z "},"?":{"ha":639,"x_min":69,"x_max":569,"o":"m 369 201 q 355 166 369 181 q 319 151 340 151 q 284 166 299 151 q 269 201 269 181 l 269 390 q 269 410 269 403 q 271 424 269 418 q 276 437 272 431 q 286 453 279 443 l 446 674 q 463 709 457 689 q 468 750 468 729 q 456 808 468 781 q 424 855 444 835 q 377 887 404 875 q 319 899 350 899 q 262 887 289 899 q 215 855 235 875 q 183 808 194 835 q 171 750 171 781 q 156 714 171 729 q 121 699 142 699 q 84 714 99 699 q 69 750 69 729 q 97 865 69 810 q 188 963 129 926 q 319 1000 247 1000 q 417 981 371 1000 q 497 927 463 961 q 550 847 531 893 q 569 750 569 801 q 552 658 569 696 q 507 583 535 621 l 369 393 l 369 201 m 319 -3 q 283 13 299 -3 q 268 49 268 28 q 283 85 268 69 q 319 100 299 100 q 356 85 340 100 q 371 49 371 69 q 356 13 371 28 q 319 -3 340 -3 z "},":":{"ha":242,"x_min":69,"x_max":172,"o":"m 121 360 q 85 375 100 360 q 69 411 69 390 q 85 448 69 433 q 121 463 100 463 q 157 448 142 463 q 172 411 172 433 q 157 375 172 390 q 121 360 142 360 m 121 536 q 85 551 100 536 q 69 588 69 567 q 85 624 69 610 q 121 639 100 639 q 157 624 142 639 q 172 588 172 610 q 157 551 172 567 q 121 536 142 536 z "},"'":{"ha":242,"x_min":69,"x_max":172,"o":"m 121 1000 q 157 985 142 1000 q 172 949 172 969 l 172 772 q 157 736 172 751 q 121 721 142 721 q 85 736 100 721 q 69 772 69 751 l 69 949 q 85 985 69 969 q 121 1000 100 1000 z "},"©":{"ha":500,"x_min":69,"x_max":431,"o":"m 250 681 q 320 667 288 681 q 378 628 353 653 q 417 570 403 603 q 431 500 431 538 q 417 430 431 463 q 378 372 403 397 q 320 333 353 347 q 250 319 288 319 q 180 333 213 319 q 122 372 147 347 q 83 430 97 397 q 69 500 69 463 q 83 570 69 538 q 122 628 97 603 q 180 667 147 653 q 250 681 213 681 m 250 600 q 179 570 208 600 q 150 500 150 540 q 179 429 150 458 q 250 400 208 400 q 299 413 278 400 q 335 449 321 426 q 336 451 336 450 q 338 467 340 460 q 330 479 336 475 q 316 482 324 483 q 303 472 308 481 l 299 468 q 250 442 283 442 q 209 459 226 442 q 192 500 192 476 q 209 541 192 524 q 250 558 226 558 q 300 531 283 558 q 314 519 306 521 q 329 521 322 517 q 339 533 336 525 q 336 550 342 540 q 301 586 324 572 q 250 600 278 600 m 250 640 q 195 629 221 640 q 151 599 169 618 q 121 555 132 581 q 110 500 110 529 q 121 445 110 471 q 151 401 132 419 q 195 371 169 382 q 250 360 221 360 q 305 371 279 360 q 349 401 331 382 q 379 445 368 419 q 390 500 390 471 q 379 555 390 529 q 349 599 368 581 q 305 629 331 618 q 250 640 279 640 z "},"%":{"ha":1139,"x_min":69,"x_max":1069,"o":"m 925 990 q 946 957 943 978 q 936 918 949 936 l 285 21 q 251 1 272 4 q 214 10 231 -3 q 193 43 196 22 q 203 82 190 64 l 853 979 q 887 999 865 996 q 925 990 908 1003 m 918 0 q 976 12 949 0 q 1025 44 1004 24 q 1058 92 1046 65 q 1069 151 1069 119 q 1058 211 1069 183 q 1025 260 1046 239 q 976 292 1004 281 q 918 304 949 304 q 858 292 886 304 q 810 260 831 281 q 777 211 789 239 q 765 151 765 183 q 777 92 765 119 q 810 44 789 65 q 858 12 831 24 q 918 0 886 0 m 221 696 q 281 708 253 696 q 329 740 308 719 q 362 789 350 761 q 374 849 374 817 q 362 907 374 879 q 329 956 350 935 q 281 988 308 976 q 221 1000 253 1000 q 162 988 189 1000 q 114 956 135 976 q 81 907 93 935 q 69 849 69 879 q 81 789 69 817 q 114 740 93 761 q 162 708 135 719 q 221 696 189 696 m 918 100 q 881 115 896 100 q 867 151 867 131 q 881 188 867 174 q 918 203 896 203 q 954 188 939 203 q 969 151 969 174 q 954 115 969 131 q 918 100 939 100 m 221 797 q 185 812 200 797 q 169 849 169 826 q 185 885 169 869 q 221 900 200 900 q 258 885 243 900 q 272 849 272 869 q 258 812 272 826 q 221 797 243 797 z "},"=":{"ha":418,"x_min":69,"x_max":349,"o":"m 349 588 q 334 552 349 567 q 297 538 319 538 l 121 538 q 85 552 100 538 q 69 588 69 567 q 85 624 69 610 q 121 639 100 639 l 297 639 q 334 624 319 639 q 349 588 349 610 m 349 411 q 334 375 349 390 q 297 360 319 360 l 121 360 q 85 375 100 360 q 69 411 69 390 q 85 448 69 433 q 121 463 100 463 l 297 463 q 334 448 319 463 q 349 411 349 433 z "},"<":{"ha":515,"x_min":69,"x_max":449,"o":"m 79 469 q 69 500 69 483 q 79 531 69 517 q 90 542 83 538 l 364 740 q 403 749 382 753 q 436 729 424 746 q 445 690 449 711 q 425 657 442 669 l 208 500 l 425 343 q 445 310 442 331 q 436 271 449 289 q 403 251 424 254 q 364 260 382 247 l 90 458 q 79 469 83 463 z "},">":{"ha":515,"x_min":67,"x_max":446,"o":"m 436 469 q 425 458 432 463 l 151 260 q 113 251 133 247 q 79 271 92 254 q 70 310 67 289 q 90 343 74 331 l 307 500 l 90 657 q 70 690 74 669 q 79 729 67 711 q 113 749 92 746 q 151 740 133 753 l 425 542 q 436 531 432 538 q 446 500 446 517 q 436 469 446 483 z "},";":{"ha":242,"x_min":69,"x_max":172,"o":"m 121 536 q 85 551 100 536 q 69 588 69 567 q 85 624 69 610 q 121 639 100 639 q 157 624 142 639 q 172 588 172 610 q 157 551 172 567 q 121 536 142 536 m 121 308 q 85 324 100 308 q 71 360 71 339 l 71 413 q 85 448 71 433 q 121 463 100 463 q 156 448 142 463 q 171 413 171 433 l 171 360 q 156 324 171 339 q 121 308 142 308 z "},"[":{"ha":389,"x_min":69,"x_max":319,"o":"m 268 1000 q 304 985 289 1000 q 319 949 319 969 q 304 913 319 928 q 268 897 289 897 l 172 897 l 172 103 l 268 103 q 304 88 289 103 q 319 51 319 72 q 304 15 319 31 q 268 0 289 0 l 121 0 q 85 15 100 0 q 69 51 69 31 l 69 949 q 85 985 69 969 q 121 1000 100 1000 l 268 1000 z "},"]":{"ha":389,"x_min":69,"x_max":319,"o":"m 268 1000 q 304 985 289 1000 q 319 949 319 969 l 319 51 q 304 15 319 31 q 268 0 289 0 l 121 0 q 85 15 100 0 q 69 51 69 31 q 85 88 69 72 q 121 103 100 103 l 217 103 l 217 897 l 121 897 q 85 913 100 897 q 69 949 69 928 q 85 985 69 969 q 121 1000 100 1000 l 268 1000 z "},"|":{"ha":242,"x_min":69,"x_max":172,"o":"m 121 1000 q 157 985 142 1000 q 172 949 172 969 l 172 51 q 157 15 172 31 q 121 0 142 0 q 85 15 100 0 q 69 51 69 31 l 69 949 q 85 985 69 969 q 121 1000 100 1000 z "},"\\":{"ha":588,"x_min":65,"x_max":521,"o":"m 103 997 q 142 995 122 1004 q 169 967 161 986 l 514 69 q 512 31 521 50 q 483 3 503 11 q 444 5 464 -4 q 418 33 425 14 l 74 931 q 74 969 65 950 q 103 997 83 989 z "},"_":{"ha":639,"x_min":69,"x_max":569,"o":"m 569 -146 q 554 -183 569 -168 q 518 -197 539 -197 l 121 -197 q 85 -183 100 -197 q 69 -146 69 -168 q 85 -110 69 -125 q 121 -94 100 -94 l 518 -94 q 554 -110 539 -94 q 569 -146 569 -125 z "},"¥":{"ha":881,"x_min":65,"x_max":815,"o":"m 690 449 q 675 413 690 428 q 639 397 660 397 l 492 397 l 492 353 l 639 353 q 675 338 660 353 q 690 301 690 322 q 675 265 690 279 q 639 250 660 250 l 492 250 l 492 51 q 476 15 492 31 q 440 0 461 0 q 404 15 419 0 q 389 51 389 31 l 389 250 l 242 250 q 206 265 221 250 q 190 301 190 279 q 206 338 190 322 q 242 353 221 353 l 389 353 l 389 397 l 242 397 q 206 413 221 397 q 190 449 190 428 q 206 485 190 471 q 242 500 221 500 l 321 500 l 76 924 q 71 962 65 942 q 94 993 76 982 q 134 999 114 1004 q 165 975 154 993 l 439 500 l 442 500 l 715 975 q 747 999 726 993 q 785 993 767 1004 q 810 962 804 982 q 804 924 815 942 l 560 500 l 639 500 q 675 485 660 500 q 690 449 690 471 z "},",":{"ha":239,"x_min":69,"x_max":169,"o":"m 119 -51 q 84 -37 99 -51 q 69 -1 69 -22 l 69 53 q 84 88 69 74 q 119 103 99 103 q 155 88 140 103 q 169 53 169 74 l 169 -1 q 155 -37 169 -22 q 119 -51 140 -51 z "},"@":{"ha":1047,"x_min":63,"x_max":985,"o":"m 399 33 q 324 99 354 60 q 282 185 294 139 q 275 281 269 232 q 307 375 281 331 q 373 449 333 419 q 459 492 413 479 q 555 498 506 504 q 649 467 604 492 q 715 410 688 443 q 758 338 743 376 q 774 256 772 299 q 761 172 775 214 l 851 121 q 876 244 875 181 q 856 365 876 307 q 797 472 836 422 q 700 554 757 521 q 567 599 636 590 q 432 590 497 607 q 311 531 367 572 q 219 426 256 489 q 175 293 183 363 q 184 158 167 224 q 243 37 201 93 q 347 -56 285 -19 q 457 -96 400 -86 q 569 -99 514 -106 q 588 -95 579 -97 q 604 -93 596 -93 q 642 -108 626 -93 q 657 -144 657 -122 q 649 -175 657 -164 q 627 -192 640 -186 q 599 -199 614 -197 q 569 -201 583 -200 q 431 -194 500 -208 q 297 -143 361 -181 q 162 -24 215 -96 q 85 133 108 49 q 73 306 63 217 q 131 476 83 394 q 250 612 178 558 q 406 688 322 665 q 579 701 490 711 q 750 643 668 690 q 885 524 831 596 q 962 369 939 453 q 974 195 985 285 q 918 25 964 106 l 917 24 l 917 22 q 885 -1 906 4 q 847 4 865 -7 l 710 83 q 643 31 681 51 q 565 4 606 11 q 481 4 524 -3 q 399 33 438 11 m 450 122 q 506 103 476 107 q 562 107 535 100 q 613 132 589 114 q 651 176 636 150 q 670 232 667 203 q 667 288 674 261 q 642 339 660 315 q 597 378 624 363 q 542 397 571 393 q 485 393 513 400 q 435 368 458 386 q 396 324 411 350 q 377 268 381 297 q 381 212 374 239 q 406 161 388 185 q 450 122 424 138 z "},"€":{"ha":1076,"x_min":69,"x_max":1007,"o":"m 653 1000 q 834 966 749 1000 q 986 874 919 932 q 1007 832 1007 857 q 992 794 1007 810 q 954 779 976 779 q 922 790 938 779 q 860 835 890 815 q 798 869 829 856 q 731 889 767 882 q 653 896 696 896 q 535 878 592 896 q 432 828 479 860 q 347 751 385 796 q 288 654 310 707 l 518 654 q 554 639 539 654 q 569 603 569 624 q 554 566 569 581 q 518 551 539 551 l 260 551 q 260 449 254 500 l 518 449 q 554 433 539 449 q 569 397 569 418 q 554 361 569 376 q 518 346 539 346 l 288 346 q 347 249 310 293 q 432 172 385 204 q 535 122 479 140 q 653 104 592 104 q 797 131 729 104 q 917 204 864 157 q 934 216 925 211 q 954 221 943 221 q 992 206 976 221 q 1007 168 1007 190 q 986 126 1007 143 q 834 33 919 67 q 653 0 749 0 q 494 26 569 0 q 356 98 418 51 q 247 208 293 144 q 178 346 201 271 l 121 346 q 84 361 99 346 q 69 397 69 376 q 84 433 69 418 q 121 449 99 449 l 156 449 q 156 551 151 500 l 121 551 q 84 566 99 551 q 69 603 69 581 q 84 639 69 624 q 121 654 99 654 l 178 654 q 247 792 201 729 q 356 902 293 856 q 494 974 418 949 q 653 1000 569 1000 z "},"–":{"ha":639,"x_min":69,"x_max":569,"o":"m 569 500 q 554 464 569 479 q 518 449 539 449 l 121 449 q 85 464 100 449 q 69 500 69 479 q 85 536 69 521 q 121 551 100 551 l 518 551 q 554 536 539 551 q 569 500 569 521 z "},"{":{"ha":489,"x_min":69,"x_max":419,"o":"m 368 0 q 345 7 357 0 q 322 23 333 14 q 301 42 311 32 q 285 61 292 53 q 171 235 214 136 q 119 449 128 333 q 84 464 99 449 q 69 500 69 479 q 84 536 69 521 q 119 551 99 551 q 174 770 129 669 q 292 946 218 871 q 326 981 306 961 q 368 1000 346 1000 q 404 985 389 1000 q 419 949 419 969 q 404 913 419 928 q 265 737 317 844 q 213 500 213 629 q 265 263 213 371 q 404 88 317 156 q 419 51 419 72 q 404 15 419 31 q 368 0 389 0 z "},"}":{"ha":489,"x_min":69,"x_max":419,"o":"m 121 0 q 85 15 100 0 q 69 51 69 31 q 85 88 69 72 q 224 263 172 156 q 276 500 276 371 q 224 737 276 629 q 85 913 172 844 q 69 949 69 928 q 85 985 69 969 q 121 1000 100 1000 q 163 981 143 1000 q 197 946 183 961 q 315 770 271 871 q 369 551 360 669 q 405 536 390 551 q 419 500 419 521 q 405 464 419 479 q 369 449 390 449 q 318 235 361 333 q 204 61 275 136 q 188 42 197 53 q 167 23 178 32 q 144 7 156 14 q 121 0 132 0 z "},"×":{"ha":368,"x_min":71,"x_max":299,"o":"m 283 401 q 247 386 268 386 q 211 401 226 386 l 185 428 l 158 401 q 122 386 143 386 q 86 401 101 386 q 71 438 71 417 q 86 474 71 458 l 113 500 l 86 526 q 71 563 71 542 q 86 599 71 583 q 122 614 101 614 q 158 599 143 614 l 185 572 l 211 599 q 247 614 226 614 q 283 599 268 614 q 299 563 299 583 q 283 526 299 542 l 257 500 l 283 474 q 299 438 299 458 q 283 401 299 417 z "},"÷":{"ha":418,"x_min":69,"x_max":349,"o":"m 349 500 q 334 464 349 479 q 297 449 319 449 l 121 449 q 85 464 100 449 q 69 500 69 479 q 85 536 69 521 q 121 551 100 551 l 297 551 q 334 536 319 551 q 349 500 349 521 m 210 308 q 174 324 189 308 q 158 360 158 339 q 174 397 158 382 q 210 411 189 411 q 246 397 231 411 q 261 360 261 382 q 246 324 261 339 q 210 308 231 308 m 210 588 q 174 603 189 588 q 158 639 158 618 q 174 676 158 661 q 210 690 189 690 q 246 676 231 690 q 261 639 261 661 q 246 603 261 618 q 210 588 231 588 z "},"$":{"ha":639,"x_min":69,"x_max":569,"o":"m 371 994 q 450 963 414 986 q 513 908 486 940 q 554 836 539 876 q 569 750 569 796 q 554 714 569 729 q 518 699 539 699 q 482 714 497 699 q 467 750 467 729 q 440 835 467 799 q 371 888 413 872 l 371 515 l 497 404 q 554 331 539 367 q 569 250 569 294 q 554 164 569 204 q 513 91 539 124 q 450 36 486 58 q 371 6 414 14 l 371 -51 q 356 -87 371 -72 q 319 -103 340 -103 q 283 -87 299 -103 q 268 -51 268 -72 l 268 6 q 189 36 225 14 q 126 91 153 58 q 85 164 100 124 q 69 250 69 204 q 84 286 69 271 q 121 301 99 301 q 157 286 142 301 q 172 250 172 271 q 199 164 172 201 q 268 111 226 126 l 268 485 l 142 596 q 85 669 100 633 q 69 750 69 706 q 85 836 69 796 q 126 908 100 876 q 189 963 153 940 q 268 994 225 986 l 268 1051 q 283 1088 268 1072 q 319 1103 299 1103 q 356 1088 340 1103 q 371 1051 371 1072 l 371 994 m 268 888 q 199 835 226 872 q 172 750 172 799 q 188 690 172 718 q 216 658 194 679 q 268 608 238 636 l 268 888 m 371 111 q 440 164 413 126 q 467 250 467 201 q 450 308 467 283 q 422 342 443 319 q 371 392 401 364 l 371 111 z "},"#":{"ha":1236,"x_min":69,"x_max":1167,"o":"m 610 997 q 638 969 629 989 q 639 931 646 950 l 567 743 l 858 743 l 944 967 q 971 995 951 986 q 1010 997 990 1004 q 1038 969 1029 989 q 1040 931 1047 950 l 968 743 l 1113 743 q 1151 728 1136 743 q 1167 692 1167 714 q 1151 656 1167 671 q 1113 640 1136 640 l 929 640 l 821 358 l 968 358 q 1004 344 989 358 q 1019 308 1019 329 q 1004 272 1019 286 q 968 257 989 257 l 781 257 l 694 33 q 668 5 688 14 q 629 3 649 -4 q 601 31 610 11 q 599 69 592 50 l 671 257 l 381 257 l 294 33 q 267 5 288 14 q 228 3 247 -4 q 200 31 208 11 q 199 69 192 50 l 271 257 l 121 257 q 84 272 99 257 q 69 308 69 286 q 84 344 69 329 q 121 358 99 358 l 310 358 l 418 640 l 271 640 q 233 656 249 640 q 217 692 217 671 q 233 728 217 714 q 271 743 249 743 l 457 743 l 543 967 q 570 995 550 986 q 610 997 590 1004 m 710 358 l 818 640 l 528 640 l 419 358 l 710 358 z "},"y":{"ha":639,"x_min":68,"x_max":569,"o":"m 121 99 q 83 168 97 131 q 69 249 69 206 l 69 449 q 85 485 69 469 q 121 500 100 500 q 157 485 142 500 q 172 449 172 469 l 172 250 q 183 192 172 219 q 215 145 194 165 q 261 113 235 125 q 319 101 288 101 q 377 113 350 101 q 424 145 404 125 q 455 192 443 165 q 467 250 467 219 l 467 449 q 482 485 467 469 q 518 500 497 500 q 554 485 539 500 q 569 449 569 469 l 569 249 q 542 136 569 188 q 471 51 515 85 q 542 -35 515 17 q 569 -147 569 -86 q 550 -244 569 -199 q 497 -324 531 -290 q 417 -378 463 -358 q 319 -397 371 -397 q 226 -379 269 -397 q 149 -330 182 -361 q 94 -256 115 -299 q 71 -165 74 -214 q 71 -135 68 -150 q 88 -103 74 -115 q 121 -92 101 -92 q 154 -103 140 -92 q 171 -133 168 -115 q 173 -157 174 -146 q 175 -182 172 -168 q 194 -228 181 -207 q 227 -264 208 -249 q 269 -287 246 -279 q 319 -296 293 -296 q 377 -284 350 -296 q 424 -252 404 -272 q 455 -205 443 -232 q 467 -147 467 -178 q 456 -92 467 -118 q 426 -46 444 -65 q 381 -14 407 -26 q 326 0 356 -1 q 258 8 290 -1 q 196 32 225 17 q 121 99 151 57 z "},"Y":{"ha":639,"x_min":68,"x_max":569,"o":"m 121 99 q 83 168 97 131 q 69 249 69 206 l 69 449 q 85 485 69 469 q 121 500 100 500 q 157 485 142 500 q 172 449 172 469 l 172 250 q 183 192 172 219 q 215 145 194 165 q 261 113 235 125 q 319 101 288 101 q 377 113 350 101 q 424 145 404 125 q 455 192 443 165 q 467 250 467 219 l 467 449 q 482 485 467 469 q 518 500 497 500 q 554 485 539 500 q 569 449 569 469 l 569 249 q 542 136 569 188 q 471 51 515 85 q 542 -35 515 17 q 569 -147 569 -86 q 550 -244 569 -199 q 497 -324 531 -290 q 417 -378 463 -358 q 319 -397 371 -397 q 226 -379 269 -397 q 149 -330 182 -361 q 94 -256 115 -299 q 71 -165 74 -214 q 71 -135 68 -150 q 88 -103 74 -115 q 121 -92 101 -92 q 154 -103 140 -92 q 171 -133 168 -115 q 173 -157 174 -146 q 175 -182 172 -168 q 194 -228 181 -207 q 227 -264 208 -249 q 269 -287 246 -279 q 319 -296 293 -296 q 377 -284 350 -296 q 424 -252 404 -272 q 455 -205 443 -232 q 467 -147 467 -178 q 456 -92 467 -118 q 426 -46 444 -65 q 381 -14 407 -26 q 326 0 356 -1 q 258 8 290 -1 q 196 32 225 17 q 121 99 151 57 z "},"G":{"ha":632,"x_min":61,"x_max":563,"o":"m 313 499 q 458 451 394 499 q 476 485 461 471 q 510 499 490 499 q 547 483 532 499 q 563 446 563 468 q 549 411 563 426 q 515 394 535 396 q 550 327 538 364 q 563 249 563 290 q 535 136 563 188 q 464 51 508 85 q 535 -35 508 17 q 563 -147 563 -86 q 543 -244 563 -199 q 490 -324 524 -290 q 410 -378 456 -358 q 313 -397 364 -397 q 219 -379 263 -397 q 142 -330 175 -361 q 88 -256 108 -299 q 64 -165 67 -214 q 64 -135 61 -150 q 81 -103 67 -115 q 114 -92 94 -92 q 147 -103 133 -92 q 164 -133 161 -115 q 166 -157 167 -146 q 168 -182 165 -168 q 188 -228 174 -207 q 220 -264 201 -249 q 263 -287 239 -279 q 313 -296 286 -296 q 370 -284 343 -296 q 417 -252 397 -272 q 448 -205 436 -232 q 460 -147 460 -178 q 449 -92 460 -118 q 419 -46 438 -65 q 374 -14 400 -26 q 319 0 349 -1 q 220 17 267 -1 q 138 70 174 36 q 83 150 103 104 q 63 249 63 196 q 82 346 63 300 q 135 426 101 392 q 215 479 169 460 q 313 499 261 499 m 332 103 q 382 119 358 107 q 423 151 406 132 q 450 196 440 171 q 460 249 460 221 q 448 306 460 279 q 417 353 436 333 q 370 385 397 374 q 313 397 343 397 q 255 385 282 397 q 208 353 228 374 q 176 306 188 333 q 164 249 164 279 q 201 151 164 192 q 294 103 239 110 q 332 103 313 100 z "},"g":{"ha":632,"x_min":61,"x_max":563,"o":"m 313 499 q 458 451 394 499 q 476 485 461 471 q 510 499 490 499 q 547 483 532 499 q 563 446 563 468 q 549 411 563 426 q 515 394 535 396 q 550 327 538 364 q 563 249 563 290 q 535 136 563 188 q 464 51 508 85 q 535 -35 508 17 q 563 -147 563 -86 q 543 -244 563 -199 q 490 -324 524 -290 q 410 -378 456 -358 q 313 -397 364 -397 q 219 -379 263 -397 q 142 -330 175 -361 q 88 -256 108 -299 q 64 -165 67 -214 q 64 -135 61 -150 q 81 -103 67 -115 q 114 -92 94 -92 q 147 -103 133 -92 q 164 -133 161 -115 q 166 -157 167 -146 q 168 -182 165 -168 q 188 -228 174 -207 q 220 -264 201 -249 q 263 -287 239 -279 q 313 -296 286 -296 q 370 -284 343 -296 q 417 -252 397 -272 q 448 -205 436 -232 q 460 -147 460 -178 q 449 -92 460 -118 q 419 -46 438 -65 q 374 -14 400 -26 q 319 0 349 -1 q 220 17 267 -1 q 138 70 174 36 q 83 150 103 104 q 63 249 63 196 q 82 346 63 300 q 135 426 101 392 q 215 479 169 460 q 313 499 261 499 m 332 103 q 382 119 358 107 q 423 151 406 132 q 450 196 440 171 q 460 249 460 221 q 448 306 460 279 q 417 353 436 333 q 370 385 397 374 q 313 397 343 397 q 255 385 282 397 q 208 353 228 374 q 176 306 188 333 q 164 249 164 279 q 201 151 164 192 q 294 103 239 110 q 332 103 313 100 z "},"“":{"ha":522,"x_min":67,"x_max":456,"o":"m 288 993 q 326 999 306 1004 q 357 974 346 993 q 401 898 379 936 q 444 821 422 860 q 451 783 456 803 q 426 751 446 763 q 388 746 407 740 q 357 771 368 751 q 312 847 333 808 q 268 922 290 885 q 263 962 257 942 q 288 993 268 982 m 96 993 q 135 999 115 1004 q 167 974 156 993 q 210 898 189 936 q 254 821 232 860 q 260 783 265 803 q 236 751 254 763 q 197 746 217 740 q 165 771 176 751 q 122 847 143 808 q 78 922 100 885 q 72 962 67 942 q 96 993 76 982 z "},"”":{"ha":522,"x_min":67,"x_max":456,"o":"m 235 993 q 260 962 254 982 q 254 922 265 942 q 210 847 232 885 q 165 771 189 808 q 135 746 154 751 q 96 751 115 740 q 72 783 76 763 q 78 821 67 803 q 122 898 100 860 q 165 974 143 936 q 197 999 176 993 q 235 993 217 1004 m 426 993 q 451 962 446 982 q 444 922 456 942 q 401 847 422 885 q 357 771 379 808 q 326 746 346 751 q 286 751 306 740 q 263 783 268 763 q 268 821 257 803 q 312 898 290 860 q 356 974 333 936 q 387 999 367 993 q 426 993 407 1004 z "},"’":{"ha":331,"x_min":65,"x_max":264,"o":"m 235 993 q 259 962 254 982 q 253 922 264 942 q 209 847 231 885 q 165 771 188 808 q 134 746 154 751 q 94 751 114 740 q 71 783 76 763 q 76 821 65 803 q 120 898 99 860 q 164 974 142 936 q 195 999 175 993 q 235 993 215 1004 z "},"‘":{"ha":331,"x_min":67,"x_max":265,"o":"m 96 993 q 135 999 115 1004 q 167 974 156 993 q 210 898 189 936 q 254 821 232 860 q 260 783 265 803 q 236 751 254 763 q 197 746 217 740 q 165 771 176 751 q 122 847 143 808 q 78 922 100 885 q 72 962 67 942 q 96 993 76 982 z "}}}
